<svg width="530" height="570" viewBox="0 0 530 570" fill="none" xmlns="http://www.w3.org/2000/svg">
<path d="M515.447 2H14C7.37258 2 2 7.37261 2 14V515.447C2 522.074 7.37261 527.447 14 527.447H515.447C522.074 527.447 527.447 522.074 527.447 515.447V14C527.447 7.37258 522.074 2 515.447 2Z" stroke="black" stroke-width="4" stroke-miterlimit="10"/>
<path d="M113.085 524.403H387.62C388.773 513.912 346.721 290.825 297.324 219.108C291.716 210.969 243.71 205.047 226.087 225.292C132.734 332.5 110.83 521.833 113.085 524.403Z" fill="black"/>
<path d="M303.835 237.622C311.627 257.809 341.023 328.584 357 379.378C367.721 413.465 371.803 442.073 374.149 449.59C374.149 449.59 293.088 423.552 274.836 423.507C246.728 423.437 201.638 482.145 212.699 489.496C230.086 501.063 312.967 540.399 379.154 552.748C415.131 559.464 482.921 513.733 477.563 477.377C470.046 426.353 377.84 291.857 342.76 253.72C324.547 233.924 294.337 213.02 303.835 237.622Z" fill="#FF9581"/>
<path d="M482.504 488.163C480.806 524.916 434.831 555.856 408.165 557.49C362.178 560.278 224.222 520.103 224.222 520.103L277.848 416.791C277.848 416.791 371.72 448.654 374.104 449.551V449.513C373.277 446.777 350.143 359.845 339.806 331.039C339.255 329.449 338.614 327.822 338.011 326.111C335.038 318.132 330.956 307.596 326.444 296.215L326.399 296.132C323.9 289.832 321.259 283.244 318.664 276.746V276.707C307.327 248.542 296.279 221.735 296.279 221.735C312.082 224.331 327.687 232.636 353.308 259.526C378.878 286.384 485.311 427.532 482.504 488.163Z" fill="black"/>
<path d="M259.975 497.75C263.801 490.438 267.691 483.157 271.53 475.852C275.298 468.7 279.111 461.574 282.956 454.46C286.929 447.103 291.101 439.759 294.312 432.03C294.37 431.883 294.171 431.761 294.075 431.889C289.249 438.253 285.276 445.27 281.309 452.185C277.201 459.35 273.196 466.579 269.229 473.827C265.339 480.927 261.596 488.098 257.905 495.295C254.111 502.703 250.279 510.381 247.536 518.251C247.427 518.565 247.863 518.872 248.068 518.565C252.503 511.983 256.297 504.773 259.975 497.75Z" fill="#2B454E"/>
<path d="M402.814 464.797L374.149 449.596L374.104 449.558V449.519C373.277 446.783 350.143 359.851 339.806 331.045C339.255 329.456 338.614 327.828 338.011 326.117C335.038 318.138 330.956 307.603 326.444 296.221L402.814 464.797Z" fill="#1C1C1C"/>
<path d="M426.545 477.409C418.586 471.462 410.005 466.143 401.36 461.253C397.04 458.805 392.631 456.556 388.101 454.531C383.281 452.378 378.187 450.82 373.399 448.654C373.034 448.488 372.765 449.052 373.13 449.218C377.603 451.243 381.852 454.063 386.172 456.415C390.664 458.863 395.176 461.273 399.726 463.612C408.659 468.207 417.432 473.083 426.315 477.775C426.526 477.89 426.744 477.557 426.545 477.409Z" fill="#1C1C1C"/>
<path d="M405.672 455.153C398.476 455.249 355.039 443.649 348.714 449.609C310.16 485.952 297.971 478.633 289.762 483.369C226.234 519.917 141.398 562.854 111.118 563.123C65.1944 563.495 46.9045 524.954 54.5499 488.541C69.642 416.56 166.718 276.208 210.642 238.91C233.931 219.165 232.091 248.946 222.459 281.322C216.807 300.304 206.925 328.527 196.845 356.224C187.918 380.897 164.257 443.944 163.847 445.424V445.463C163.809 445.546 163.77 445.591 163.777 445.636C163.745 445.802 163.911 445.835 164.283 445.732C166.302 445.36 220.627 419.758 275.259 405.692C294.51 400.738 334.602 393.676 348.976 400.091C357.525 403.904 357.666 409.005 357.666 409.005C357.666 409.005 364.517 408.383 371.746 414.33C376.539 418.278 378.026 423.86 378.026 423.86C378.026 423.86 385.524 424.911 389.427 429.256C394.079 434.44 394.49 439.926 394.49 439.926C404.615 442.63 405.672 455.153 405.672 455.153Z" fill="white"/>
<path d="M341.504 407.486C335.711 407.569 330.059 408.409 324.368 409.408C323.983 409.479 323.996 410.075 324.406 410.03C329.994 409.415 335.653 409.287 341.267 409.101C346.849 408.915 352.52 408.793 358.102 408.909C358.134 408.909 358.141 408.851 358.109 408.845C352.54 407.928 347.169 407.403 341.504 407.486Z" fill="#1A2E35"/>
<path d="M377.866 423.527C367.92 420.797 359.993 419.284 347.502 420.848C347.099 420.899 347.131 421.495 347.528 421.469C359.397 420.733 367.138 421.937 377.847 423.738C377.968 423.764 377.975 423.559 377.866 423.527Z" fill="#1A2E35"/>
<path d="M394.381 439.593C384.409 435.491 376.732 434.209 365.664 434.209C365.273 434.209 365.145 434.786 365.549 434.825C376.168 435.837 383.935 437.362 394.233 440.041C394.49 440.105 394.624 439.695 394.381 439.593Z" fill="#1A2E35"/>
<path d="M272.606 406.326C267.838 406.948 263.07 408.351 258.405 409.498C253.432 410.722 248.471 412.075 243.601 413.683C233.847 416.9 224.382 420.758 215.045 425.013C214.686 425.18 214.878 425.731 215.263 425.597C224.773 422.264 234.379 419.143 243.992 416.118C248.721 414.632 253.419 413.049 258.129 411.511C262.961 409.928 267.992 408.729 272.741 406.929C273.061 406.807 272.965 406.275 272.606 406.326Z" fill="#1A2E35"/>
<path d="M234.61 416.624C244.665 413.222 249.209 413.202 249.209 413.202L306.366 509.721C306.366 509.721 148.935 566.398 116.616 569.711C84.2919 573.024 47.5198 547.57 46.8982 506.991C46.0266 449.955 139.033 312.986 185.822 260.02C207.265 235.744 232.264 218.114 238.641 222.094C246.171 226.791 232.495 257.315 225.286 280.085C211.982 322.118 164.296 445.732 164.296 445.732C164.296 445.732 222.633 420.681 234.61 416.624Z" fill="black"/>
<path d="M248.696 413.125C239.827 413.645 201.484 427 182.682 435.068C163.943 443.111 145.916 452.653 129.004 464.073C119.436 470.533 110.355 477.563 101.383 484.824C101.076 485.074 101.409 485.574 101.742 485.337C118.276 473.513 135.938 462.964 153.811 453.307C171.595 443.7 189.705 434.581 208.553 427.231C219.287 423.046 237.744 416.778 248.228 414.029C251.195 413.247 248.971 413.106 248.696 413.125Z" fill="#1C1C1C"/>
<path d="M210.95 328.725C208.553 332.596 206.124 336.441 204.073 340.517C203.977 340.709 203.887 340.901 203.791 341.094C206.835 331.833 209.726 322.547 212.494 313.197C212.667 312.621 211.712 312.313 211.494 312.871C197.966 347.131 185.412 381.807 173.236 416.573C169.826 426.295 166.84 436.119 163.745 445.937C163.636 446.277 164.193 446.45 164.334 446.129C168.051 437.709 171.794 429.345 175.197 420.777C178.599 412.215 181.759 403.558 184.957 394.919C190.545 379.814 195.87 364.632 201.004 349.374C202.612 346.701 204.234 344.035 205.752 341.318C207.963 337.351 209.783 333.198 211.629 329.052C211.828 328.597 211.2 328.322 210.95 328.725Z" fill="#1C1C1C"/>
<path d="M268.062 488.701C263.871 481.588 259.744 474.442 255.572 467.322C251.484 460.344 247.453 453.339 243.441 446.322C239.295 439.061 235.264 431.64 230.4 424.828C230.31 424.699 230.092 424.808 230.156 424.956C233.008 432.415 236.866 439.497 240.647 446.514C244.562 453.788 248.587 461.004 252.644 468.2C256.617 475.25 260.725 482.216 264.89 489.156C269.171 496.289 273.67 503.601 278.906 510.086C279.117 510.343 279.604 510.144 279.457 509.798C276.208 502.556 272.087 495.533 268.062 488.701Z" fill="#1C1C1C"/>
<path d="M308.641 509.926C303.899 500.576 296.523 491.393 291.063 482.498C290.857 482.158 290.351 482.511 290.55 482.85C295.51 491.194 300.054 500.185 304.796 508.67C283.174 517.597 260.218 525.557 238.167 533.369C215.538 541.392 192.762 548.993 169.672 555.645C156.766 559.362 143.84 563.393 130.856 566.802C130.049 567.013 130.266 567.68 131.093 567.52C154.452 563.123 177.388 556.375 200.004 549.198C223.068 541.879 245.831 533.702 268.485 525.236C281.232 520.475 309.026 510.683 308.641 509.926Z" fill="#1C1C1C"/>
<path d="M271.151 406.39C241.422 414.003 207.214 426.532 191.884 432.53C191.481 432.671 191.115 432.812 190.75 432.947C177.247 438.253 168.884 442.188 166.878 442.521C166.712 442.444 166.584 442.329 166.455 442.252V442.214C165.052 441.201 163.661 440.432 162.277 439.913C158.47 438.548 121.891 433.979 122.813 422.648C123.704 411.44 138.61 412.138 140.802 412.292C138.431 411.773 118.577 407.121 125.044 397.207C129.613 390.176 149.274 391.208 151.254 391.285C149.249 390.625 131.01 384.678 137.284 374.559C141.776 367.317 163.725 368.259 166.257 368.689C164.206 367.907 147.948 365.183 155.535 356.461C160.803 350.386 202.132 356.564 220.505 365.734C247.824 379.372 271.151 406.39 271.151 406.39Z" fill="white"/>
<path d="M191.884 432.531C191.481 432.672 191.115 432.813 190.75 432.947C184.406 428.019 160.399 415.305 141.539 412.889C140.373 412.741 140.296 412.068 141.533 412.126C164.821 413.183 185.758 426.898 191.884 432.531Z" fill="#1A2E35"/>
<path d="M152.152 392.035C178.183 397.2 189.949 402.949 212.334 417.169C212.648 417.368 213 416.906 212.699 416.676C191.833 401.058 178.849 393.323 152.376 391.375C151.177 391.285 150.96 391.798 152.152 392.035Z" fill="#1A2E35"/>
<path d="M167.058 369.227C192.032 375.866 205.195 381.621 225.311 397.899C225.785 398.283 226.369 397.7 225.933 397.271C206.976 378.885 190.596 371.598 167.295 368.535C165.706 368.33 165.488 368.811 167.058 369.227Z" fill="#1A2E35"/>
<path d="M292.107 269.075C277.316 274.394 248.587 254.124 236.148 236.475C235.302 235.257 235.738 221.434 235.469 204.605C235.27 194.396 234.802 183.028 233.629 172.691L300.265 181.086C300.265 181.086 296.349 203.484 298.503 221.498C298.701 223.004 299.009 224.388 299.432 225.689C299.477 225.881 299.56 226.112 299.605 226.381C301.842 234.289 306.404 263.922 292.107 269.075Z" fill="white" stroke="black" stroke-width="0.640852" stroke-miterlimit="10"/>
<path d="M299.631 226.375C299.759 226.804 299.887 227.272 299.97 227.83C260.077 226.138 244.902 208.598 235.084 191.769C234.783 185.354 234.36 178.849 233.629 172.691L300.271 181.073C300.271 181.073 296.337 203.49 298.515 221.498C298.689 222.998 299.028 224.363 299.458 225.689C299.502 225.856 299.541 226.118 299.631 226.375Z" fill="black" stroke="black" stroke-width="0.640852" stroke-miterlimit="10"/>
<path d="M206.316 102.793C202.702 126.716 224.536 191.077 242.992 203.426C269.748 221.325 308.699 217.678 322.682 186.623C336.236 156.522 306.296 73.1536 286.134 62.4322C256.437 46.6352 211.655 67.45 206.316 102.793Z" fill="white" stroke="black" stroke-width="1.2817" stroke-miterlimit="10"/>
<path d="M267.934 131.74C267.845 131.587 267.665 132.061 267.729 132.234C269.312 136.528 270.408 141.718 266.96 144.468C266.851 144.551 266.941 144.769 267.075 144.698C271.645 142.43 270.126 135.554 267.934 131.74Z" fill="black"/>
<path d="M262.538 128.504C255.38 130.305 259.507 144.493 266.14 142.827C272.67 141.18 268.543 126.992 262.538 128.504Z" fill="black"/>
<path d="M294.671 123.691C294.658 123.512 295.074 123.8 295.119 123.98C296.26 128.414 298.311 133.304 302.713 133.605C302.848 133.612 302.906 133.843 302.752 133.862C297.695 134.592 295.036 128.075 294.671 123.691Z" fill="black"/>
<path d="M297.26 117.956C304.174 115.36 308.853 129.382 302.444 131.779C296.144 134.15 291.466 120.128 297.26 117.956Z" fill="black"/>
<path d="M255.053 123.64C256.841 122.589 258.322 121.327 259.988 120.103C261.865 118.725 263.5 117.821 264.326 115.54C264.769 114.316 263.935 112.592 262.788 112.047C260.11 110.785 257.392 111.9 255.066 113.463C252.541 115.162 251.029 117.116 250.144 120.026C249.286 122.845 252.688 125.024 255.053 123.64Z" fill="black"/>
<path d="M300.669 109.214C298.605 109.464 296.663 109.355 294.606 109.394C292.28 109.439 290.428 109.714 288.384 108.394C287.288 107.689 286.91 105.812 287.493 104.684C288.852 102.056 291.69 101.294 294.491 101.127C297.529 100.947 299.919 101.582 302.38 103.363C304.77 105.087 303.386 108.881 300.669 109.214Z" fill="black"/>
<path d="M278.104 172.486C279.457 173.21 280.918 174.319 282.552 173.992C284.116 173.678 285.711 172.467 286.955 171.512C287.076 171.416 287.262 171.524 287.211 171.685C286.564 173.703 284.468 175.459 282.328 175.696C280.238 175.927 278.752 174.492 277.739 172.813C277.598 172.575 277.906 172.383 278.104 172.486Z" fill="black"/>
<path d="M276.893 157.983C280.462 161.085 284.685 162.117 288.819 161.732C290.665 161.572 292.523 161.098 294.273 160.412C294.625 160.303 294.965 160.162 295.266 159.996C295.574 159.861 295.856 159.739 296.189 159.566C296.682 159.342 296.842 158.836 296.785 158.323L296.772 158.291L297 157.766C297 157.766 296.599 157.855 296.593 157.823L296 159L296.189 159.566C297.775 158.846 302.5 155 301.5 148.5C296.367 134.119 290.851 118.122 282.705 104.895C282.462 104.447 281.757 104.774 281.936 105.241C286.32 119.257 293.145 132.407 297.772 146.422C297.772 146.422 299 150 297.772 153.267C296.331 157.1 294.08 157.766 294.08 157.766C288.608 160.149 283.82 159.675 277.188 157.464C276.79 157.311 276.527 157.708 276.893 157.983Z" fill="black"/>
<path opacity="0.8" d="M213.34 148.133C217.115 145.044 221.883 129.215 224.1 122.679C226.401 115.886 219.575 88.3483 217.345 80.1582C211.712 86.5155 207.745 94.289 206.348 103.043C204.746 113.008 207.848 130.67 213.34 148.133Z" fill="black"/>
<path d="M276.342 88.0726C273.144 94.9682 266.665 99.9027 259.065 100.813C251.663 101.697 243.236 98.8325 238.724 92.6996C238.59 92.5201 238.308 92.7252 238.442 92.911C243.268 99.4605 250.939 103.793 259.257 102.594C267.063 101.466 274.138 95.6924 276.842 88.2969C276.957 87.9637 276.49 87.7522 276.342 88.0726Z" fill="#1A2E35"/>
<path d="M239.397 42.0917C227.202 45.892 217.89 55.9213 215.807 65.5725C214.538 71.4363 215.615 76.7105 217.948 81.722C218.044 81.9271 218.467 81.754 218.39 81.5425C215.295 73.4358 216.679 62.7912 223.914 54.4281C230.867 46.3982 241.723 41.406 252.624 42.3096C258.315 42.7774 263.41 44.841 266.685 48.199C267.05 48.5771 267.889 48.0196 267.562 47.6223C262.019 40.919 250.433 38.6568 239.397 42.0917Z" fill="#1A2E35"/>
<path d="M318.318 48.2119C314.646 42.7262 308.936 38.7594 302.604 36.9778C293.735 34.4785 285.417 37.6187 277.22 40.8998C276.996 40.9895 277.137 41.3356 277.355 41.2459C284.346 38.471 291.594 36.0678 299.182 37.5482C305.366 38.7594 311.205 42.0598 315.21 46.9559C323.528 57.1198 322.951 72.8527 313.723 82.2476C308.5 87.5666 301.002 90.5786 293.555 90.3351C293.261 90.3287 293.177 90.7773 293.479 90.7965C307.199 91.604 320.228 81.7092 322.413 67.995C323.496 61.2276 322.157 53.9347 318.318 48.2119Z" fill="#1A2E35"/>
<path d="M206.169 116.488C206.169 116.488 188.283 97.8137 194.441 82.3308C197.928 73.5575 216.538 69.3215 216.538 69.3215C216.538 69.3215 219.467 57.1068 233.681 49.3333C248.042 41.4829 268.825 45.2895 268.825 45.2895C268.825 45.2895 281.046 32.825 296.907 36.7726C319.023 42.2775 324.835 71.9554 308.301 86.695C296.689 97.0447 275.054 90.2901 275.054 90.2901C273.362 91.0271 258.43 106.959 240.294 94.7376C240.294 94.7376 232.008 107.689 220.14 103.601C220.146 103.607 217.935 115.001 206.169 116.488Z" fill="black"/>
<path d="M299.413 224.972L285.237 264.185L235.635 217.377L222.696 233.495C222.696 233.495 272.35 308.974 272.51 305.469L287.089 271.741L310.826 293.914L306.77 236.129L299.413 224.972Z" fill="#EDEFEF"/>
<path d="M310.442 265.236C309.449 255.72 308.718 246.1 307.289 236.641C307.238 236.308 306.706 236.174 306.635 236.577C305.072 245.863 309.051 282.244 309.346 290.992C309.314 290.96 309.276 290.928 309.244 290.896C308.25 289.935 287.282 271.427 287.089 271.735C283.853 277.124 273.151 301.688 272.439 303.912C264.589 291.921 234.572 248.388 225.388 237.116C225.125 236.789 224.619 237.084 224.831 237.468C231.848 250.176 271.6 308.827 272.17 308.635C272.574 308.923 285.891 278.662 287.403 272.984C290.986 277.054 312.243 298.035 312.256 296.612C312.358 287.032 311.429 274.766 310.442 265.236Z" fill="#1C1C1C"/>
<path d="M228.394 154.612C228.394 154.612 209.905 135.797 201.125 142.737C192.346 149.678 208.745 178.702 220.812 181.022C232.88 183.342 235.244 172.217 235.244 172.217L228.394 154.612Z" fill="white" stroke="black" stroke-width="1.2817" stroke-miterlimit="10"/>
<path d="M206.034 150.934C205.849 150.946 205.855 151.209 206.028 151.248C214.532 153.138 219.967 159.816 224.19 166.981C221.325 164.43 217.833 163.36 214.353 166.84C214.173 167.025 214.423 167.314 214.641 167.23C217.788 165.987 220.236 166.154 222.876 168.397C224.747 169.986 226.208 172.146 227.682 174.094C228.176 174.741 229.4 174.145 228.99 173.37C228.958 173.312 228.926 173.254 228.894 173.197C227.381 163.014 217.108 150.126 206.034 150.934Z" fill="#1A2E35"/>
</svg>
